<svg data-v-0dd9719b="" version="1.0" xmlns="http://www.w3.org/2000/svg" xmlns:xlink="http://www.w3.org/1999/xlink" width="100%" height="100%" viewBox="0 0 340.000000 250.000000" preserveAspectRatio="xMidYMid meet" color-interpolation-filters="sRGB" style="margin: auto;"> <rect data-v-0dd9719b="" x="0" y="0" width="100%" height="100%" fill="#fff" fill-opacity="1" class="background"></rect> <rect data-v-0dd9719b="" x="0" y="0" width="100%" height="100%" fill="url(#watermark)" fill-opacity="1" class="watermarklayer"></rect> <g data-v-0dd9719b="" fill="#017a6c" class="icon-text-wrapper icon-svg-group iconsvg" transform="translate(48.209999084472656,95)"><g class="iconsvg-imagesvg" transform="translate(0,0)"><g><rect fill="#017a6c" fill-opacity="0" stroke-width="2" x="0" y="0" width="60" height="60" class="image-rect"></rect> <svg x="0" y="0" width="60" height="60" filtersec="colorsb8906705086" class="image-svg-svg primary" style="overflow: visible;"><svg version="1.1" id="图层_1" xmlns="http://www.w3.org/2000/svg" xmlns:xlink="http://www.w3.org/1999/xlink" x="0px" y="0px" viewBox="0.20000000298023224 0 99.80000305175781 99.80000305175781" enable-background="new 0 0 101 100" xml:space="preserve">
<g>
	<path fill-rule="evenodd" clip-rule="evenodd" fill="#017A6C" d="M51.17,12.17C57.98,26.45,84.04,30.25,100,45.73
		c-0.07,0.14-1.17-32.64-38.95-43.71c-2.81-0.82-6.23-1.46-9.13-1.66c4.76,0.66,13.94,4.89,20.71,9.5
		c6.06,4.12,9.92,8.58,11.3,10.51c-3.08-2.23-9.17-8.1-15.87-11.31c-8.25-3.95-17.26-4.7-20.69,0.21L20.08,46.83L51.17,12.17
		L51.17,12.17z"></path>
	<path fill-rule="evenodd" clip-rule="evenodd" fill="#017A6C" d="M49.03,87.63C42.22,73.35,16.16,69.55,0.2,54.07
		c0.06-0.14,1.17,32.64,38.95,43.71c2.81,0.82,6.23,1.46,9.14,1.66c-4.76-0.66-13.94-4.89-20.71-9.5
		c-6.06-4.12-9.92-8.58-11.3-10.52c3.08,2.24,9.17,8.1,15.87,11.31c8.25,3.95,17.26,4.7,20.69-0.21l27.28-37.57L49.03,87.63
		L49.03,87.63z"></path>
	<path fill-rule="evenodd" clip-rule="evenodd" fill="#017A6C" d="M12.37,48.83C26.65,42.02,30.45,15.96,45.93,0
		c0.13,0.07-32.64,1.17-43.71,38.95c-0.82,2.81-1.46,6.23-1.66,9.13c0.66-4.76,4.89-13.94,9.5-20.71c4.12-6.06,8.58-9.92,10.51-11.3
		c-2.23,3.08-8.1,9.17-11.31,15.87c-3.95,8.25-4.7,17.26,0.21,20.69l37.57,27.28L12.37,48.83L12.37,48.83z"></path>
	<path fill-rule="evenodd" clip-rule="evenodd" fill="#017A6C" d="M87.83,50.97C73.55,57.78,69.75,83.84,54.27,99.8
		c-0.14-0.06,32.64-1.17,43.71-38.95c0.82-2.81,1.46-6.23,1.66-9.14c-0.66,4.76-4.89,13.94-9.5,20.71
		c-4.12,6.06-8.58,9.92-10.51,11.3c2.23-3.08,8.1-9.17,11.31-15.87c3.95-8.25,4.7-17.26-0.21-20.69L53.17,19.88L87.83,50.97
		L87.83,50.97z"></path>
</g>
</svg></svg> <!----></g></g> <g transform="translate(67,2.1187477111816406)"><g data-gra="path-name" fill-rule="" class="tp-name iconsvg-namesvg" transform="translate(0,0)"><g transform="scale(1)"><g><path d="M3.33 3.6L9.13 3.6C11.34-1.48 12.87-6.93 13.63-12.33L8.23-12.33C7.38-6.93 5.58-1.48 3.33 3.6ZM4.23-19.57L13.32-16.65 13.32-21.6 4.23-24.52ZM5.76-30.51L14.85-27.58 14.85-32.53 5.76-35.46ZM32.04-31L32.04-36 26.46-36 26.46-31 18.99-31C16.83-31 15.39-29.56 15.39-27.4L15.39-18.86 20.61-18.86 20.61-25.65C20.61-26.05 20.88-26.32 21.29-26.32L26.46-26.32C26.19-14.31 23.18-7.96 12.87-0.54L14.35 4.81C21.38 0.63 26.1-4.32 28.89-10.66L28.89-1.08C28.89 1.71 30.38 3.33 32.8 3.65 34.7 3.87 38.88 3.87 40.68 3.65 43.06 3.33 44.41 1.8 44.41-0.36L44.41-6.52 39.46-7.29 39.46-1.53C39.46-1.03 39.24-0.81 38.61-0.72 37.84-0.58 35.91-0.63 35.05-0.72 34.52-0.77 34.2-1.13 34.2-1.57L34.2-16.2 30.73-16.2C31.5-19.26 31.9-22.63 31.99-26.32L37.21-26.32C37.62-26.32 37.89-26.05 37.89-25.65L37.89-18.86 43.11-18.86 43.11-27.4C43.11-29.56 41.67-31 39.51-31ZM72.5 3.46L86.63 3.46C88.69 3.46 89.82 2.21 89.82-0.14L89.82-30.78C89.82-33.12 88.69-34.38 86.63-34.38L72.5-34.38C70.42-34.38 69.3-33.12 69.3-30.78L69.3-0.14C69.3 2.21 70.42 3.46 72.5 3.46ZM84.78-13.63L84.78-1.71C84.78-1.3 84.56-1.03 84.19-1.03L74.97-1.03C74.61-1.03 74.38-1.3 74.38-1.71L74.38-13.63ZM84.78-18.22L74.38-18.22 74.38-29.2C74.38-29.61 74.61-29.88 74.97-29.88L84.19-29.88C84.56-29.88 84.78-29.61 84.78-29.2ZM57.78-5.08L58.09-4.05C58.95-3.96 60.57-3.87 61.38-3.87 64.89-3.87 67.14-5.54 67.14-9.99 67.14-13.5 66.33-17.32 64.22-20.16L66.91-29.79C67.14-30.6 67.36-31.5 67.28-32.53 67.14-34.38 66.24-35.1 64.26-35.1L55.75-35.1C53.77-35.1 52.74-34.16 52.74-32.35L52.74 4.54 57.78 4.54ZM57.78-8.32L57.78-30.29C57.78-30.6 57.91-30.73 58.27-30.73L62.05-30.73 59.72-20.65C59.53-19.8 59.63-19.04 60.08-18.22 61.29-16.11 62.14-12.87 62.14-10.04 62.14-8.59 61.42-8.23 60.3-8.23 59.76-8.23 58.68-8.28 57.78-8.32ZM127.22-2.02L128.3-7.88 122.94-7.88 121.91-2.02 117-2.02 117-10.35 130.59-10.35 130.59-15.03 117-15.03 117-19.26 126.77-19.26 126.77-22.27C128.88-21.06 131.13-19.89 133.51-18.81L134.87-23.98C126.94-27.63 122.17-30.73 116.91-36L111.6-36C106.34-30.73 101.52-27.63 93.6-23.98L95-18.81C97.42-19.89 99.72-21.06 101.88-22.27L102.15-19.26 111.51-19.26 111.51-15.03 98.01-15.03 98.41-10.35 111.51-10.35 111.51-2.02 106.83-2.02 105.8-7.88 100.35-7.88 101.43-2.02 94.68-2.02 95.08 2.65 133.65 2.65 133.65-2.02ZM123.93-23.94L104.72-23.94C108.31-26.23 111.51-28.71 114.25-31.45 117-28.71 120.24-26.23 123.93-23.94ZM170.82-22.99L170.82-20.79C170.82-20.29 170.69-20.07 170.01-20.07L162-20.07 162-22.99ZM170.82-27.22L162-27.22 162-30.15 170.06-30.15C170.69-30.15 170.82-29.92 170.82-29.47ZM165.28-8.46L179.24-8.46 179.24-13.05 162-13.05 162-15.57 172.49-15.57C175.05-15.57 176.22-16.88 176.22-19.3L176.22-30.96C176.22-33.48 175.05-34.65 172.44-34.65L146.61-34.65C143.91-34.65 142.83-33.62 142.83-30.91L142.83-19.3C142.83-16.56 144-15.57 146.61-15.57L156.6-15.57 156.6-13.05 139.28-13.05 139.63-8.46 153.18-8.46C149.04-5.26 144.27-3.33 138.69-2.34L140.04 2.75C147.47 0.99 152.78-1.62 156.6-5.49L156.6 4.41 162 4.41 162-5.54C165.96-1.57 171.09 1.03 178.56 2.75L179.91-2.56C174.19-3.46 169.51-5.26 165.28-8.46ZM156.6-20.07L149.13-20.07C148.54-20.07 148.23-20.38 148.23-20.88L148.23-22.99 156.6-22.99ZM156.6-27.22L148.23-27.22 148.23-29.34C148.23-29.79 148.46-30.15 149.04-30.15L156.6-30.15Z" transform="translate(-3.3299999237060547, 36)"></path></g> <!----> <!----> <!----> <!----> <!----> <!----> <!----></g></g> <g data-gra="path-slogan" fill-rule="" class="tp-slogan iconsvg-slogansvg" fill="#017a6c" transform="translate(5,46.810001373291016)"><rect x="0" height="1" y="3.9750003814697266" width="0.9541778564453125"></rect> <rect height="1" y="3.9750003814697266" width="0.9541778564453125" x="165.62582397460938"></rect> <g transform="translate(3.9541778564453125,0)"><g transform="scale(1)"><path d="M7.17-6.09L7.17-6.09L6.09-6.09Q6-7.73 3.94-7.83L3.94-7.83Q2.02-7.78 2.02-6.33L2.02-6.33Q2.02-5.39 3.05-5.25L3.05-5.25L5.48-4.69Q7.41-4.22 7.41-2.34L7.41-2.34Q7.36 0.05 4.03 0.14L4.03 0.14Q2.20 0.14 1.45-0.61L1.45-0.61Q0.52-1.31 0.56-2.77L0.56-2.77L1.69-2.77Q1.73-0.80 4.03-0.75L4.03-0.75Q6.28-0.80 6.33-2.20L6.33-2.20Q6.52-3.38 4.45-3.75L4.45-3.75L2.67-4.13Q0.84-4.64 0.84-6.19L0.84-6.19Q0.98-8.72 3.84-8.81L3.84-8.81Q7.08-8.81 7.17-6.09ZM10.03-5.06L14.53-5.06L14.53-8.58L15.70-8.58L15.70 0L14.53 0L14.53-3.98L10.03-3.98L10.03 0L8.86 0L8.86-8.58L10.03-8.58L10.03-5.06ZM18.80-1.03L23.95-1.03L23.95 0L17.63 0L17.63-8.58L23.86-8.58L23.86-7.59L18.80-7.59L18.80-4.92L23.48-4.92L23.48-3.89L18.80-3.89L18.80-1.03ZM26.86-8.58L31.17-1.64L31.17-8.58L32.30-8.58L32.30 0L30.98 0L26.63-6.94L26.58-6.94L26.58 0L25.45 0L25.45-8.58L26.86-8.58ZM41.02-8.58L37.78-3.47L37.78 0L36.61 0L36.61-3.47L33.38-8.58L34.73-8.58L37.17-4.45L39.66-8.58L41.02-8.58ZM47.72 0L46.88-2.48L43.41-2.48L42.52 0L41.34 0L44.58-8.58L45.89-8.58L48.98 0L47.72 0ZM45.14-7.31L43.78-3.52L46.45-3.52L45.19-7.31L45.14-7.31ZM51.42-8.58L55.73-1.64L55.73-8.58L56.86-8.58L56.86 0L55.55 0L51.19-6.94L51.14-6.94L51.14 0L50.02 0L50.02-8.58L51.42-8.58ZM65.06-3.61L62.44-3.61L62.44-4.59L66.19-4.59L66.19 0L65.44 0L65.16-1.08Q64.17 0.09 62.34 0.14L62.34 0.14Q60.61 0.14 59.67-0.75L59.67-0.75Q58.27-2.06 58.31-4.36L58.31-4.36Q58.64-8.63 62.39-8.81L62.39-8.81Q65.58-8.63 66.05-6L66.05-6L64.92-6Q64.45-7.78 62.34-7.83L62.34-7.83Q59.67-7.64 59.53-4.31L59.53-4.31Q59.53-0.75 62.39-0.75L62.39-0.75Q63.42-0.75 64.17-1.31L64.17-1.31Q65.11-2.06 65.06-3.61L65.06-3.61ZM77.72-3.61L75.09-3.61L75.09-4.59L78.84-4.59L78.84 0L78.09 0L77.81-1.08Q76.83 0.09 75 0.14L75 0.14Q73.27 0.14 72.33-0.75L72.33-0.75Q70.92-2.06 70.97-4.36L70.97-4.36Q71.30-8.63 75.05-8.81L75.05-8.81Q78.23-8.63 78.70-6L78.70-6L77.58-6Q77.11-7.78 75-7.83L75-7.83Q72.33-7.64 72.19-4.31L72.19-4.31Q72.19-0.75 75.05-0.75L75.05-0.75Q76.08-0.75 76.83-1.31L76.83-1.31Q77.77-2.06 77.72-3.61L77.72-3.61ZM87.42-4.27L87.42-4.27Q87.23-7.64 84.42-7.83L84.42-7.83Q81.56-7.69 81.42-4.27L81.42-4.27Q81.56-0.94 84.42-0.80L84.42-0.80Q87.23-0.98 87.42-4.27ZM88.59-4.27L88.59-4.27Q88.31 0 84.42 0.14L84.42 0.14Q80.48 0 80.20-4.27L80.20-4.27Q80.44-8.72 84.42-8.81L84.42-8.81Q88.31-8.67 88.59-4.27ZM89.95-8.58L91.13-8.58L91.13-1.03L95.48-1.03L95.48 0L89.95 0L89.95-8.58ZM100.13 0L96.66 0L96.66-8.58L100.17-8.58Q103.64-8.39 103.78-4.41L103.78-4.41Q103.59-0.09 100.13 0L100.13 0ZM99.98-7.64L97.83-7.64L97.83-0.98L100.08-0.98Q102.52-1.13 102.61-4.31L102.61-4.31Q102.56-7.55 99.98-7.64L99.98-7.64ZM106.55-1.03L111.70-1.03L111.70 0L105.38 0L105.38-8.58L111.61-8.58L111.61-7.59L106.55-7.59L106.55-4.92L111.23-4.92L111.23-3.89L106.55-3.89L106.55-1.03ZM114.61-8.58L118.92-1.64L118.92-8.58L120.05-8.58L120.05 0L118.73 0L114.38-6.94L114.33-6.94L114.33 0L113.20 0L113.20-8.58L114.61-8.58ZM130.69-3.89L126.47-3.89L126.47 0L125.30 0L125.30-8.58L131.25-8.58L131.25-7.59L126.47-7.59L126.47-4.92L130.69-4.92L130.69-3.89ZM136.55-3.70L133.73-3.70L133.73 0L132.56 0L132.56-8.58L136.55-8.58Q139.41-8.58 139.41-6.28L139.41-6.28Q139.41-4.88 138.19-4.22L138.19-4.22Q139.22-3.94 139.22-2.58L139.22-2.58L139.31-1.03Q139.27-0.38 139.73-0.19L139.73-0.19L139.73 0L138.28 0Q138.14-0.61 138.09-2.16L138.09-2.16Q138.14-3.70 136.55-3.70L136.55-3.70ZM136.64-7.64L133.73-7.64L133.73-4.69L136.45-4.69Q138.19-4.69 138.19-6.19L138.19-6.19Q138.19-7.64 136.64-7.64L136.64-7.64ZM146.72-3.19L146.72-8.58L147.89-8.58L147.89-3.05Q147.75 0.05 144.38 0.14L144.38 0.14Q141.23 0.05 141.09-2.86L141.09-2.86L141.09-8.58L142.27-8.58L142.27-3.19Q142.31-0.84 144.42-0.80L144.42-0.80Q146.72-0.84 146.72-3.19L146.72-3.19ZM149.86-8.58L151.03-8.58L151.03 0L149.86 0L149.86-8.58ZM155.20-7.59L152.30-7.59L152.30-8.58L159.23-8.58L159.23-7.59L156.33-7.59L156.33 0L155.20 0L155.20-7.59Z" transform="translate(-0.5602678571428572, 8.8125)"></path></g></g></g></g></g><defs v-gra="od"></defs></svg>